# xmcd CD database file
#
# Track frame offsets:
#	150
#	42793
#	63914
#	77018
#	91806
#	107703
#	119572
#	135672
#	148684
#	169385
#	192358
#	212683
#	224996
#
# Disc length: 3176 seconds
#
# Revision: 0
# Processed by: cddbd v1.5.2PL0 Copyright (c) Steve Scherf et al.
# Submitted via: CDex 1.70beta2
#
DISCID=c60c660d
DTITLE=King Kooba and The Trout - Slow Gin Volume 6 - Disc 2
DYEAR=1900
DGENRE=Jazz
TTITLE0=Lonnie Smith - Play It Back
TTITLE1=Reuben Wilson - Inner City Blues
TTITLE2=Lee Fields - Clap Your Hands
TTITLE3=Byrdie Green - Return of the Prodigal Son
TTITLE4=Aretha Franklin - Day Dreaming
TTITLE5=Al Green - I'm Glad You're Mine
TTITLE6=Curtis Mayfield - Hard Times
TTITLE7=Leroy Hutson - So In Love With You
TTITLE8=Joe Bataan - Call My Name
TTITLE9=Patrice Rushen - Settle for My Love
TTITLE10=Marvin Gaye - I Want You
TTITLE11=Roberta Flack and Donnie Hathaway - Where Is The Love
TTITLE12=Billie Holiday - God Bless the Child
EXTD=
EXTT0=
EXTT1=
EXTT2=
EXTT3=
EXTT4=
EXTT5=
EXTT6=
EXTT7=
EXTT8=
EXTT9=
EXTT10=
EXTT11=
EXTT12=
PLAYORDER=
